<?xml version="1.0" encoding="UTF-8"?>
<!DOCTYPE svg PUBLIC "-//W3C//DTD SVG 1.1//EN" "http://www.w3.org/Graphics/SVG/1.1/DTD/svg11.dtd">
<!-- Creator: CorelDRAW 2017 -->
<svg xmlns="http://www.w3.org/2000/svg" xml:space="preserve" width="39.5184mm" height="11.148mm" version="1.1" style="shape-rendering:geometricPrecision; text-rendering:geometricPrecision; image-rendering:optimizeQuality; fill-rule:evenodd; clip-rule:evenodd"
viewBox="0 0 1039.4 293.21"
 xmlns:xlink="http://www.w3.org/1999/xlink">
 <defs>
  <style type="text/css">
   <![CDATA[
    .fil0 {fill:#FEFEFE}
   ]]>
  </style>
 </defs>
 <g id="Warstwa_x0020_1">
  <metadata id="CorelCorpID_0Corel-Layer"/>
  <g id="_2722131052016">
   <rect class="fil0" x="74.57" y="60.64" width="27.29" height="163.96"/>
   <path class="fil0" d="M328.13 134.59c-0.39,-28.13 25.51,-51.64 53.88,-51.07 27.8,0.55 52.69,23.6 52.48,51.09l-106.37 -0.02zm99.41 47.08c-4.14,4.2 -5.7,8.65 -10.27,12.74 -28.55,25.63 -83.65,14.05 -88.74,-40.05l130.9 -0.32c4.38,-20.96 -5.7,-46.36 -14.82,-58.92 -37.73,-51.96 -121.09,-37.68 -140.49,23.18 -15.15,47.52 11.39,88.56 42.15,102.18 43.81,19.39 88.23,-2.25 103.47,-32.87l-22.21 -5.95z"/>
   <path class="fil0" d="M215.95 224.62c-0.03,-92.3 0,0 -0.03,-92.3 -0.01,-12.48 8.63,-22.61 23.05,-32.24 10.61,-7.08 21.09,-9.25 36.11,-10.81l-0.06 -24.07c-28.95,-2.93 -49.58,19.41 -59.01,36.45l-0.1 -35.71 -24.81 0.04 0.09 158.63 24.76 0z"/>
   <g>
    <path class="fil0" d="M884.16 65.98c13.85,36.96 30.59,73.41 46.02,110.11 3.99,9.49 7.87,18.63 11.76,28.02 4.51,10.88 10.48,17.09 5.87,28.37 -16.64,40.77 -15.66,36.79 -38.86,35.42l-0.12 23.44c31.33,7.55 47.79,-8.83 56.06,-30.4 8.26,-21.56 16.93,-43.08 24.94,-64.71 6.02,-16.25 46.59,-118.55 49.56,-130.24l-24 0.15c-5.36,7.81 -46.93,125.07 -49.37,133.33 -0.97,-1.12 -0.97,-1.09 -2.05,-2.95 -0.18,-0.32 -0.38,-0.68 -0.56,-1.01l-5.35 -13.2c-9.82,-24.09 -43.26,-103.55 -46.41,-116.31l-27.5 -0.03z"/>
    <path class="fil0" d="M875.8 9.69c-16.51,-12.18 -45.29,-13.09 -61.23,-1.55 -15.47,11.19 -20.56,30.92 -21.72,56.9 -21.59,0.09 0,0 -21.59,0.09 -0.06,21.45 0,0 -0.06,21.45l21.62 0.67 0.13 137.35 26.69 -0.04 0.17 -137.57 42.13 -0.12 -0.82 -20.97 -41.36 -0.04c-0.07,-16.43 2.04,-32.04 12.21,-38.91 10.51,-7.09 28.07,-4.07 37.88,2.09l5.96 -19.35z"/>
    <path class="fil0" d="M603.2 3.14c-0.27,64.27 -2.35,116.85 -0.7,181.7 0.78,30.4 9.61,52.17 65.78,35.67l-4.08 -21.47c-22,4.47 -34.23,7.02 -34.58,-19.91 -0.18,-176.33 0,0 -0.18,-176.33l-26.24 0.34z"/>
    <path class="fil0" d="M503.65 3.25c-0.52,166.87 -0.01,3.27 -0.52,166.87 -0.06,17.61 -0.19,36.79 8.12,46.22 14.78,16.76 37.1,9.14 57.87,4.22l-4.94 -21.26c-11.23,1.8 -33.62,12.19 -33.86,-20.17 -0.21,-176.41 0,0 -0.21,-176.41l-26.47 0.53z"/>
    <polygon class="fil0" points="701.86,224.58 728.39,224.6 728.34,65.94 701.74,66.03 "/>
    <polygon class="fil0" points="701.74,36.13 728.42,36.08 728.18,2.78 701.83,2.78 "/>
   </g>
   <rect class="fil0" x="-0" y="9.35" width="175.46" height="24.13"/>
  </g>
 </g>
</svg>
