<?xml version="1.0" encoding="UTF-8"?>
<!DOCTYPE svg PUBLIC "-//W3C//DTD SVG 1.1//EN" "http://www.w3.org/Graphics/SVG/1.1/DTD/svg11.dtd">
<!-- Creator: CorelDRAW 2017 -->
<svg xmlns="http://www.w3.org/2000/svg" xml:space="preserve" width="24.3448mm" height="24.3448mm" version="1.1" style="shape-rendering:geometricPrecision; text-rendering:geometricPrecision; image-rendering:optimizeQuality; fill-rule:evenodd; clip-rule:evenodd"
viewBox="0 0 299.73 299.73"
 xmlns:xlink="http://www.w3.org/1999/xlink">
 <defs>
  <style type="text/css">
   <![CDATA[
    .fil0 {fill:#00ABD6;fill-rule:nonzero}
   ]]>
  </style>
 </defs>
 <g id="Warstwa_x0020_1">
  <metadata id="CorelCorpID_0Corel-Layer"/>
  <path class="fil0" d="M296.04 153.55l-114.77 114.77 -31.1 31.1 -0.3 0.3c-49.97,-49.94 -99.92,-99.9 -149.87,-149.87l0.28 -0.28 31.12 -31.12 16.38 -16.38 31.12 -31.12 70.96 -70.96 149.87 149.87 -3.68 3.68zm-257.27 -27.72l71.18 71.18 -24.04 24.04 16.6 16.6 88.26 -88.26 -87.77 -87.77 -16.72 16.72 71.39 71.39 -31.12 31.12 -71.39 -71.39 -16.38 16.38 -0 -0.01zm56.44 71.18l-63.81 -63.81 -16.38 16.38 63.81 63.81 16.38 -16.38zm47.71 -47.28l-64.02 -64.02 -16.38 16.38 64.02 64.02 16.38 -16.38zm-8.81 -119.23l118.89 118.89 -95.34 95.34 16.23 16.24 111.09 -111.09 -135.13 -135.13 -15.75 15.75 0 -0.01zm104.15 118.89l-111.08 -111.08 -16.38 16.38 94.7 94.7 -95.34 95.34 9.72 9.72 -0.02 0.02 30.27 30.27 16.4 -16.4 -23.6 -23.6 95.34 -95.34 0 -0z"/>
 </g>
</svg>
